<svg id="Capa_1" enable-background="new 0 0 512 512" height="512" viewBox="0 0 512 512" width="512" xmlns="http://www.w3.org/2000/svg"><g><path d="m255.998 0c-52.295 0-100.371 25.053-131.909 66.977h131.909 131.909c-31.538-41.924-79.615-66.977-131.909-66.977z" fill="#6d1d40"/><path d="m255.998 0v66.977h131.909c-31.538-41.924-79.615-66.977-131.909-66.977z" fill="#58072a"/><path d="m453.517 234.32-60-90c-4.6-6.899-2.739-16.201 4.16-20.801 6.885-4.614 16.216-2.739 20.801 4.16l60 90c4.6 6.899 2.739 16.201-4.16 20.801-7.019 4.653-16.281 2.632-20.801-4.16z" fill="#e30a6c"/><path d="m375.998 61h-240c-24.9 0-45 20.099-45 45v45l30 15h270l30-15v-45c0-24.901-20.1-45-45-45z" fill="#ff5f96"/><path d="m90.998 151h330v247.8h-330z" fill="#6d1d40"/><path d="m375.998 61h-120v105h135l30-15v-45c0-24.901-20.1-45-45-45z" fill="#e30a6c"/><path d="m255.998 151h165v247.8h-165z" fill="#58072a"/><path d="m360.998 196v75l-15 60h-180l-15-60v-75c0-8.401 6.599-15 15-15h30c24.6 0 46.199-11.4 60-30 13.801 18.6 35.4 30 60 30h30c8.4 0 15 6.599 15 15z" fill="#ffe1ba"/><path d="m360.998 196v75l-15 60h-90v-180c13.801 18.6 35.4 30 60 30h30c8.4 0 15 6.599 15 15z" fill="#ffbfab"/><path d="m480.998 466v31c0 8.401-6.599 15-15 15h-420c-8.401 0-15-6.599-15-15v-31c0-57.9 47.1-105 105-105h75v-20.099h90v20.099h75c57.899 0 105 47.1 105 105z" fill="#e2d9fb"/><circle cx="255.998" cy="406" fill="#f2f2fc" r="75"/><path d="m480.998 466v31c0 8.401-6.599 15-15 15h-210v-171.099h45v20.099h75c57.899 0 105 47.1 105 105z" fill="#c7c1dc"/><path d="m330.998 406c0 41.4-33.6 75-75 75v-150c41.4 0 75 33.6 75 75z" fill="#e2d9fb"/><circle cx="255.998" cy="406" fill="#ffbfab" r="45"/><path d="m300.998 406c0 24.901-20.099 45-45 45v-90c24.9 0 45 20.099 45 45z" fill="#f89580"/><path d="m345.998 271c-15.901 0-30.901 8.699-39 22.5-2.701 4.501-7.5 7.5-12.9 7.5h-38.101-38.401c-5.4 0-10.499-2.999-12.9-7.5-7.798-13.801-22.798-22.5-38.699-22.5h-15v45c0 57.9 47.1 105 105 105s105-47.1 105-105v-45z" fill="#873a62"/><path d="m360.998 316v-45h-15c-15.901 0-30.901 8.699-39 22.5-2.701 4.501-7.5 7.5-12.9 7.5h-38.101v120c57.9 0 105.001-47.1 105.001-105z" fill="#6d1d40"/><g><path d="m285.998 346c0 8.401-6.599 15-15 15h-30c-8.401 0-15-6.599-15-15s6.599-15 15-15h30c8.4 0 15 6.599 15 15z" fill="#ffe1ba"/><path d="m270.998 361h-15v-30h15c8.401 0 15 6.599 15 15s-6.6 15-15 15z" fill="#ffbfab"/></g></g></svg>